<svg version="1" xmlns="http://www.w3.org/2000/svg" width="933.333" height="933.333" viewBox="0 0 700.000000 700.000000"><path d="M0 350v350h700V0H0v350zm310.5-112.5c6.5.8 12.5 1.5 13.2 1.5 1.1 0 1.3 21 1.3 110.5v110.6l-14.2-.3-14.3-.3-1-8.7c-.6-4.8-1.3-9-1.7-9.3-.3-.3-2 1.2-3.8 3.5-1.8 2.2-6 6-9.4 8.3-10.5 7.4-17.8 9.7-31.1 9.7-31.7 0-51-19.7-57.1-58.1-2.4-15.3-1.5-41 1.9-54 7.1-27.3 22.2-44.8 43.2-50.4 8.7-2.3 23.4-2.1 31.6.4 6.7 2.1 16.9 8.1 20.3 11.9 1.1 1.2 2.3 2.2 2.8 2.2.4 0 .8-17.8.8-39.5V236h2.8c1.5 0 8.1.7 14.7 1.5zM78 255.2c0 .7-1.4 10.7-3 22.3-1.7 11.5-3 21.6-3 22.3 0 1 4.2 1.2 19.2 1l19.2-.3 3.1-23 3.1-23 13.7-.3 13.7-.3-.5 3.8c-3.5 24-5.5 38.9-5.5 40.9 0 2.4.1 2.4 10.5 2.4H159v24h-24.6l-3.8 29.2c-2.1 16.1-4.1 30.5-4.3 32l-.5 2.8H148v23h-12.4c-11 0-12.5.2-12.9 1.7-.3 1-1.8 11.8-3.3 24l-2.8 22.3H90v-2.4c0-2.2 4.4-36.9 5.5-42.9l.5-2.7H76.5c-10.7 0-19.5.1-19.5.3 0 .1-1.3 10.6-3 23.2-1.6 12.6-3 23.3-3 23.7 0 .4-6.1.8-13.5.8H24v-2.4c0-2.2 4.4-36.9 5.5-42.9l.5-2.7H8v-23h12c8.7 0 12.2-.3 12.5-1.3.6-1.5 8.5-58.4 8.5-61 0-1.5-1.2-1.7-11-1.7H19v-24h13c10.4 0 13-.3 13-1.4 0-1.5 4.7-37.1 5.5-42.4l.6-3.2h13.4c10.1 0 13.5.3 13.5 1.2zm381.2 44.9c17.9 3.1 33.6 14.9 42.7 31.9 6.5 12.2 11.2 37.8 9.6 52.6l-.7 6.4-52.1.2-52.2.3.3 4c1 12.6 6.6 24.9 14.6 32.3 7.2 6.6 14.4 9.3 25.8 10 11.8.6 21.7-1.7 34.2-7.9 5.4-2.7 10-4.8 10.1-4.7.1.2 3.2 4.5 6.9 9.7l6.6 9.4-3.3 2.4c-15.6 11.6-35.3 17-58.4 16-22.3-1-34.7-6-48.3-19.7-6.8-6.8-9.4-10.2-12.8-17-10-20.3-12.4-48.2-6.3-72.5 6.5-25.5 24.7-45.4 47.5-52 10.6-3.1 23.4-3.6 35.8-1.4zm226.1.5c4 .9 7.3 1.8 7.5 1.9.2.2-.9 13.2-2.4 28.9l-2.8 28.6H664v-16c0-18.2.7-17.1-9.2-14.5-15 3.9-27.5 17.4-35.4 38.3l-3.3 8.7-.1 29.7v29.7l15.8.3 15.7.3v23l-43.7.3-43.8.2v-24h23V326h-23v-23h24c13.2 0 24 .3 24 .6 0 1 5 30.7 5.6 33.4.5 2.2 1 1.6 4.3-4.8 7.2-13.5 17.9-24.5 28-28.8 10.5-4.5 26.8-5.6 39.4-2.8z"/><path d="M255.9 324c-22.2 3.7-32.5 27.4-29.8 68.5 1.3 18.4 5.4 30.9 12.6 38.1 13.4 13.4 35.7 9.6 49.4-8.5l4.9-6.4v-74.2l-4.5-5.2c-8.5-9.7-20.6-14.3-32.6-12.3zM64.6 354.2c-2.1 16.1-4.1 30.5-4.3 32l-.5 2.8h19.1c14.4 0 19.3-.3 19.6-1.3.6-1.5 8.5-58.4 8.5-61 0-1.6-1.6-1.7-19.3-1.7H68.4l-3.8 29.2zM433.1 324.1c-14 4.1-25.2 21-26.3 39.9l-.3 5.5h73l-.3-6.5c-.4-8.2-2.4-16.6-5.6-22.8-3.2-6.3-11.3-13.6-17.3-15.6-5.2-1.8-17.7-2-23.2-.5z"/></svg>